<svg xmlns="http://www.w3.org/2000/svg" height="24px" viewBox="0 -960 960 960" width="24px" fill="#e3e3e3"><path d="M612.58-367.51q54.5-54.59 54.5-132.58 0-77.99-54.59-132.49-54.59-54.5-132.58-54.5-77.99 0-132.49 54.59-54.5 54.59-54.5 132.58 0 77.99 54.59 132.49 54.59 54.5 132.58 54.5 77.99 0 132.49-54.59ZM402-422.12q-32-32.12-32-78T402.12-578q32.12-32 78-32T558-577.88q32 32.12 32 78T557.88-422q-32.12 32-78 32T402-422.12Zm-197.38 147.5Q81.16-359.23 25.54-500q55.62-140.77 179.02-225.38Q327.97-810 479.95-810q151.97 0 275.43 84.62Q878.84-640.77 934.46-500q-55.62 140.77-179.02 225.38Q632.03-190 480.05-190q-151.97 0-275.43-84.62ZM480-500Zm211.87 163.42Q788.74-397.16 840-500q-51.26-102.84-148.13-163.42Q595-724 480-724t-211.87 60.58Q171.26-602.84 120-500q51.26 102.84 148.13 163.42Q365-276 480-276t211.87-60.58Z"/></svg>