<svg xmlns="http://www.w3.org/2000/svg" height="24px" viewBox="0 -960 960 960" width="24px" fill="#e3e3e3"><path d="M365.04-551.35Q318-598.38 318-666.31q0-67.92 47.04-114.96 47.04-47.04 114.96-47.04 67.92 0 114.96 47.04Q642-734.23 642-666.31q0 67.93-47.04 114.96-47.04 47.04-114.96 47.04-67.92 0-114.96-47.04ZM150-126.69v-119.93q0-36.38 17.96-65.92t48.66-45q63.3-32.07 129.65-48.11 66.35-16.04 133.73-16.04t133.73 16.04q66.35 16.04 129.65 48.11 30.7 15.46 48.66 45Q810-283 810-246.62v119.93H150Zm86-86h488v-33.93q0-12.15-5.04-20.5-5.04-8.34-14.11-12.88-52.7-25.46-110.92-40.58Q535.7-335.69 480-335.69q-55.7 0-113.93 14.61-58.22 14.62-110.92 41.08-9.07 3.54-14.11 12.38-5.04 8.85-5.04 21v33.93Zm298-399.62q22-22 22-54t-22-54q-22-22-54-22t-54 22q-22 22-22 54t22 54q22 22 54 22t54-22Zm-54-54Zm0 453.62Z"/></svg>